<svg role="img" viewBox="0 0 24 24" xmlns="http://www.w3.org/2000/svg">
	<!-- Letters-only path from Font Awesome Free 7.2.0 brands/vk (CC BY 4.0, https://fontawesome.com/license/free) -->
	<title>VK</title>
	<g transform="translate(0 4.512545) scale(0.080294414) translate(-75.5 -168.199997)">
		<path d="M75.6 168.3l51.1 0c1.7 85.5 39.4 121.7 69.3 129.2l0-129.2 48.2 0 0 73.7c29.5-3.2 60.5-36.8 70.9-73.7l48.2 0c-3.9 19.2-11.8 37.3-23.1 53.3s-25.7 29.5-42.5 39.6c18.7 9.3 35.2 22.4 48.4 38.5s22.9 34.9 28.3 55l-53 0c-4.9-17.5-14.8-33.1-28.6-45s-30.7-19.4-48.7-21.6l0 66.6-5.8 0c-102.1 0-160.3-70-162.8-186.5z"/>
	</g>
</svg>
