<svg xmlns="http://www.w3.org/2000/svg" xml:space="preserve" width="512" height="512" style="shape-rendering:geometricPrecision;text-rendering:geometricPrecision;image-rendering:optimizeQuality;fill-rule:evenodd;clip-rule:evenodd" viewBox="0 0 84380 84380"><path d="M42190 0c23300 0 42190 18890 42190 42190S65490 84380 42190 84380 0 65490 0 42190 18890 0 42190 0m4250 51970 2110 70c280-990 930-2860 1940-5630s1720-4600 2140-5490c-4880 4600-8650 7370-11320 8300q-2190 780-4440 780c-2480 0-4410-820-5770-2460-1360-1650-2040-3940-2040-6900 0-4220 1950-9860 5840-16920 3900-7060 8330-12580 13300-16570l2810 2600C40600 20960 35400 30320 35400 37830q0 6540 5130 6540c3420 0 6760-1880 9990-5630 3240-3750 6590-9570 10060-17450 1410-3230 2490-5370 3240-6400s1480-1550 2180-1550q1050 0 1650 630c400 430 600 990 600 1690 0 3010-2160 7460-6470 13370-3000 6190-6030 13880-9080 23080q1545 90 3180 450c630-20 1270 100 1840 360 2330 420 4680 830 7030 1230-1870 3050-6040 960-13280 1170-2740 6620-6050 11590-9920 14900-3920 3360-8590 5030-14040 5030-2810 0-5170-760-7070-2280-1900-1530-2840-3440-2840-5740 0-4220 2830-7820 8510-10790 5670-2980 12450-4470 20330-4470m770 3250c-5690-130-10520 350-15750 2970-4270 2140-6410 4730-6410 7780 0 1310 530 2380 1590 3200 1050 820 2400 1230 4040 1230 3800 0 7170-1540 10100-4610 2870-3010 5020-6540 6430-10570" style="fill:#b84030"/></svg>