<svg xmlns="http://www.w3.org/2000/svg" xml:space="preserve" width="300" height="100" style="shape-rendering:geometricPrecision;text-rendering:geometricPrecision;image-rendering:optimizeQuality;fill-rule:evenodd;clip-rule:evenodd" viewBox="0 0 300000 99900"><path d="m41460 64410 3030 100c400-1420 1330-4110 2780-8090s2480-6600 3080-7890c-7010 6610-12430 10590-16270 11930-2100 750-4220 1120-6370 1120-3580 0-6340-1180-8300-3540-1950-2360-2930-5660-2930-9910 0-6070 2800-14170 8390-24320C30470 13670 36840 5730 43980 0l4050 3740C33060 19850 25580 33300 25580 44090c0 6260 2460 9400 7380 9400s9710-2700 14360-8090q6975-8085 14460-25080c2020-4650 3570-7710 4650-9200 1080-1480 2120-2220 3130-2220 1020 0 1810 300 2380 910 570 600 860 1410 860 2430 0 4310-3100 10710-9300 19210-4320 8890-8660 19950-13050 33160 1480 100 3000 310 4570 660 900-30 1830 130 2650 500 3350 610 6710 1200 10090 1770l-1720 4120c-5740-910-11550-2320-17350-2440-3950 9530-8700 16670-14260 21430-5630 4820-12350 7230-20170 7230-4050 0-7430-1100-10160-3290S0 89650 0 86350c0-6070 4080-11240 12230-15520 8160-4280 17900-6420 29230-6420m1090 4680c-8160-200-15100 500-22630 4270-6140 3060-9200 6790-9200 11170 0 1890 760 3420 2270 4600q2280 1770 5820 1770c5460 0 10290-2210 14510-6620 4130-4340 7210-9400 9230-15190m38570 600c71310 10870 148370 13030 218880 1490-64880 16660-150000 12720-220800 2480zm3510-22980q7680-11520 13350-15720c3770-2800 7070-4190 9910-4190 2830 0 5020 850 6570 2570s2320 3900 2320 6520c0 7280-2610 14010-7830 20180-5230 6160-11110 9250-17650 9250-2900 0-5190-510-6870-1520l2420-4350c3580 480 5770 710 6580 710 3640 0 7040-2120 10210-6370s4750-8590 4750-13040c0-1690-490-3090-1460-4200-980-1110-2250-1670-3800-1670-3700 0-7900 3270-12580 9810-4690 6540-9070 14650-13150 24320s-7630 19970-10670 30890l-6060-2120c130-410 1400-3900 3790-10470s4730-13090 7030-19570c6330-17790 9500-27530 9500-29220 0-4310-880-8220-2630-11720l5060-2530c2090 2900 3130 5950 3130 9150q0 4800-1920 13290m69060 6980 2830 2120c-670 1420-2110 3040-4300 4860s-4730 2730-7630 2730c-3910 0-5870-1990-5870-5970 0-2290 490-4840 1470-7630 980-2800 1940-5360 2880-7690 950-2320 1520-3790 1720-4390-1620 2290-4230 4660-7830 7120-3610 2460-6900 3690-9860 3690-4390 0-6580-2490-6580-7480 0-3230 900-6810 2680-10720q2685-5865 5610-8190l4450 1620c-3160 5870-4750 10210-4750 13040 0 2840 1320 4250 3950 4250 3030 0 6500-1680 10410-5050s6670-7590 8290-12640l5260 2930c-7280 12870-10920 21810-10920 26790 0 2300 890 3440 2680 3440 1780 0 3620-940 5510-2830m47720-200 2130 1720c-1150 2830-2950 5220-5410 7180-2460 1950-4690 2930-6680 2930-1980 0-3550-690-4700-2070-1140-1390-1720-3190-1720-5410 0-2230 370-5090 1120-8600-3170 4990-6580 8900-10220 11730s-6700 4250-9200 4250c-3770 0-5660-2260-5660-6780 0-4510 1570-10600 4700-18250 3140-7650 5380-12010 6730-13090l4850 2120c-2760 4450-4850 8830-6270 13150-1420 4310-2120 7190-2120 8640s450 2610 1360 3490 1970 1310 3190 1310c2690 0 6050-2470 10060-7430 4010-4950 8100-12350 12280-22190l5160 2320c-140 540-1670 4450-4600 11730s-4400 11650-4400 13100 320 2540 960 3280q960 1110 1920 1110c640 0 1130-30 1470-100 330-60 670-200 1010-400s620-370 860-510c230-130 520-370 860-700l710-810c200-140 480-420 860-860 370-440 620-730 750-860m44900 600 2520 2230c-3910 6400-8050 9610-12430 9610-2500 0-5040-1620-7640-4860-2590-3230-4160-6370-4700-9400-400 740-1550 2690-3440 5860-1880 3170-3230 5770-4040 7790l-6070-2120c1420-8300 3150-16120 5210-23460 2060-7350 3990-12510 5810-15470l4150 1310c-1210 3100-3240 11360-6070 24770 3710-7610 7450-13190 11230-16730 3770-3540 7920-5880 12430-7030v6680c-4850 200-9540 3470-14050 9800 270 4390 1570 8030 3890 10920 2330 2900 4530 4350 6620 4350 1020 0 3210-1410 6580-4250m51560-600 2130 1720c-1150 2830-2950 5220-5410 7180-2460 1950-4690 2930-6680 2930-1980 0-3550-690-4700-2070-1140-1390-1720-3190-1720-5410 0-2230 370-5090 1110-8600-3160 4990-6570 8900-10210 11730s-6700 4250-9200 4250c-3770 0-5660-2260-5660-6780 0-4510 1570-10600 4700-18250 3140-7650 5380-12010 6730-13090l4850 2120c-2760 4450-4850 8830-6270 13150-1420 4310-2120 7190-2120 8640s450 2610 1360 3490 1970 1310 3190 1310c2690 0 6050-2470 10060-7430 4010-4950 8100-12350 12280-22190l5160 2320c-140 540-1670 4450-4600 11730s-4400 11650-4400 13100 320 2540 960 3280q960 1110 1920 1110c640 0 1130-30 1470-100 330-60 670-200 1010-400s620-370 860-510c230-130 520-370 860-700l710-810c200-140 480-420 860-860 370-440 620-730 750-860" style="fill:#b84030;fill-rule:nonzero"/></svg>